<?xml version="1.0" encoding="UTF-8" standalone="no"?><!DOCTYPE svg PUBLIC "-//W3C//DTD SVG 1.1//EN" "http://www.w3.org/Graphics/SVG/1.1/DTD/svg11.dtd"><svg width="100%" height="100%" viewBox="0 0 100 100" version="1.1" xmlns="http://www.w3.org/2000/svg" xmlns:xlink="http://www.w3.org/1999/xlink" xml:space="preserve" style="fill-rule:evenodd;clip-rule:evenodd;stroke-linejoin:round;stroke-miterlimit:1.41421;"><rect id="Artboard1" x="0" y="0" width="100" height="100" style="fill:none;"/><path d="M50.07,57.414l0.07,0.001l0.07,0.003l0.069,0.003l0.139,0.008l0.068,0.007l0.069,0.006l0.068,0.007l0.069,0.008l0.068,0.009l0.068,0.01l0.134,0.023l0.067,0.012l0.067,0.013l0.066,0.014l0.066,0.015l0.066,0.016l0.065,0.016l0.065,0.017l0.065,0.018l0.064,0.019l0.064,0.02l0.064,0.02l0.064,0.021l0.063,0.022l0.063,0.022l0.062,0.023l0.062,0.025l0.062,0.024l0.122,0.052l0.06,0.027l0.061,0.028l0.059,0.028l0.059,0.029l0.059,0.029l0.059,0.031l0.058,0.031l0.115,0.064l0.056,0.033l0.112,0.069l0.056,0.035l0.055,0.035l0.055,0.037l0.107,0.074l0.053,0.038l0.053,0.04l0.052,0.039l0.051,0.04l0.052,0.04l0.05,0.041l0.05,0.042l0.049,0.043l0.05,0.043l0.048,0.043l0.048,0.044l0.047,0.045l0.047,0.045l0.047,0.047l0.046,0.046l0.045,0.047l0.045,0.047l0.044,0.048l0.087,0.098l0.084,0.099l0.041,0.05l0.04,0.052l0.04,0.051l0.04,0.053l0.039,0.052l0.038,0.053l0.038,0.054l0.036,0.053l0.037,0.055l0.035,0.055l0.035,0.056l0.035,0.056l0.034,0.055l0.033,0.057l0.033,0.058l0.031,0.058l0.062,0.116l0.029,0.058l0.029,0.06l0.028,0.059l0.028,0.061l0.054,0.121l0.025,0.061l0.024,0.062l0.025,0.062l0.023,0.062l0.022,0.063l0.022,0.063l0.022,0.064l0.02,0.064l0.038,0.128l0.018,0.065l0.033,0.13l0.016,0.066l0.015,0.067l0.014,0.065l0.013,0.068l0.012,0.066l0.012,0.067l0.011,0.068l0.01,0.067l0.009,0.068l0.008,0.069l0.014,0.137l0.006,0.068l0.005,0.07l0.007,0.138l0.002,0.07l0.001,0.07l0,8.168l-0.001,0.07l-0.002,0.069l-0.004,0.07l-0.003,0.069l-0.005,0.069l-0.006,0.069l-0.007,0.069l-0.007,0.068l-0.008,0.068l-0.009,0.068l-0.01,0.068l-0.011,0.068l-0.012,0.066l-0.012,0.067l-0.013,0.067l-0.014,0.066l-0.015,0.066l-0.016,0.066l-0.016,0.065l-0.017,0.066l-0.018,0.065l-0.019,0.064l-0.019,0.064l-0.02,0.064l-0.022,0.063l-0.022,0.064l-0.022,0.062l-0.023,0.063l-0.025,0.061l-0.024,0.062l-0.025,0.062l-0.027,0.06l-0.027,0.061l-0.028,0.06l-0.028,0.06l-0.029,0.059l-0.029,0.059l-0.031,0.058l-0.031,0.058l-0.031,0.058l-0.033,0.057l-0.033,0.057l-0.034,0.056l-0.035,0.056l-0.035,0.056l-0.035,0.054l-0.037,0.055l-0.036,0.054l-0.038,0.053l-0.038,0.054l-0.039,0.052l-0.04,0.053l-0.04,0.051l-0.04,0.051l-0.041,0.051l-0.042,0.049l-0.042,0.05l-0.044,0.049l-0.043,0.048l-0.044,0.049l-0.045,0.047l-0.045,0.047l-0.046,0.046l-0.047,0.046l-0.047,0.045l-0.047,0.045l-0.048,0.044l-0.048,0.044l-0.05,0.043l-0.049,0.042l-0.05,0.042l-0.05,0.042l-0.052,0.04l-0.051,0.04l-0.052,0.039l-0.053,0.039l-0.053,0.038l-0.054,0.038l-0.053,0.037l-0.055,0.036l-0.055,0.036l-0.056,0.035l-0.056,0.034l-0.056,0.034l-0.056,0.034l-0.058,0.032l-0.057,0.031l-0.058,0.032l-0.059,0.03l-0.059,0.03l-0.059,0.029l-0.059,0.028l-0.061,0.028l-0.06,0.027l-0.061,0.026l-0.061,0.026l-0.062,0.024l-0.062,0.024l-0.062,0.024l-0.063,0.022l-0.063,0.022l-0.064,0.021l-0.064,0.02l-0.064,0.02l-0.064,0.018l-0.065,0.018l-0.065,0.017l-0.065,0.017l-0.066,0.016l-0.066,0.014l-0.066,0.014l-0.067,0.014l-0.067,0.012l-0.067,0.011l-0.067,0.011l-0.068,0.01l-0.068,0.009l-0.069,0.008l-0.068,0.008l-0.069,0.006l-0.068,0.006l-0.07,0.005l-0.069,0.004l-0.069,0.003l-0.07,0.002l-0.07,0.001l-0.07,0.001l-0.07,-0.001l-0.07,-0.001l-0.069,-0.002l-0.07,-0.003l-0.069,-0.004l-0.07,-0.005l-0.068,-0.006l-0.069,-0.006l-0.068,-0.008l-0.068,-0.008l-0.068,-0.009l-0.068,-0.01l-0.068,-0.011l-0.067,-0.011l-0.066,-0.012l-0.067,-0.014l-0.066,-0.014l-0.067,-0.014l-0.066,-0.016l-0.065,-0.017l-0.065,-0.017l-0.065,-0.018l-0.064,-0.018l-0.064,-0.02l-0.064,-0.02l-0.064,-0.021l-0.063,-0.022l-0.063,-0.022l-0.062,-0.024l-0.062,-0.024l-0.061,-0.024l-0.062,-0.026l-0.061,-0.026l-0.06,-0.027l-0.06,-0.028l-0.06,-0.028l-0.059,-0.029l-0.059,-0.03l-0.058,-0.03l-0.058,-0.032l-0.058,-0.031l-0.057,-0.032l-0.057,-0.034l-0.056,-0.034l-0.056,-0.034l-0.056,-0.035l-0.055,-0.036l-0.054,-0.036l-0.054,-0.037l-0.054,-0.038l-0.053,-0.038l-0.052,-0.039l-0.053,-0.039l-0.051,-0.04l-0.051,-0.04l-0.051,-0.042l-0.05,-0.042l-0.049,-0.042l-0.049,-0.043l-0.049,-0.044l-0.048,-0.044l-0.047,-0.045l-0.047,-0.045l-0.046,-0.046l-0.047,-0.046l-0.045,-0.047l-0.044,-0.047l-0.045,-0.049l-0.043,-0.048l-0.043,-0.049l-0.043,-0.05l-0.042,-0.049l-0.041,-0.051l-0.04,-0.051l-0.04,-0.051l-0.039,-0.053l-0.04,-0.052l-0.037,-0.054l-0.038,-0.053l-0.037,-0.054l-0.037,-0.055l-0.035,-0.054l-0.035,-0.056l-0.035,-0.056l-0.034,-0.056l-0.033,-0.057l-0.032,-0.057l-0.032,-0.058l-0.031,-0.058l-0.03,-0.058l-0.03,-0.059l-0.029,-0.059l-0.028,-0.06l-0.028,-0.06l-0.027,-0.061l-0.026,-0.06l-0.026,-0.062l-0.024,-0.062l-0.024,-0.061l-0.024,-0.063l-0.022,-0.062l-0.022,-0.064l-0.021,-0.063l-0.02,-0.064l-0.02,-0.064l-0.019,-0.064l-0.018,-0.065l-0.017,-0.066l-0.016,-0.065l-0.016,-0.066l-0.015,-0.066l-0.014,-0.066l-0.013,-0.067l-0.012,-0.067l-0.012,-0.066l-0.011,-0.068l-0.01,-0.068l-0.009,-0.068l-0.007,-0.068l-0.008,-0.068l-0.006,-0.069l-0.006,-0.069l-0.005,-0.069l-0.004,-0.069l-0.003,-0.07l-0.003,-0.069l0,-0.07l-0.001,-0.067l0,-8.034l0.001,-0.067l0,-0.07l0.003,-0.07l0.003,-0.069l0.004,-0.069l0.005,-0.07l0.006,-0.068l0.006,-0.069l0.008,-0.068l0.007,-0.069l0.009,-0.068l0.01,-0.067l0.011,-0.068l0.012,-0.067l0.012,-0.066l0.013,-0.068l0.014,-0.065l0.015,-0.067l0.016,-0.066l0.016,-0.065l0.017,-0.065l0.018,-0.065l0.019,-0.064l0.02,-0.064l0.02,-0.064l0.021,-0.064l0.022,-0.063l0.022,-0.063l0.024,-0.062l0.024,-0.062l0.024,-0.062l0.026,-0.061l0.026,-0.061l0.027,-0.06l0.028,-0.061l0.028,-0.059l0.029,-0.06l0.03,-0.058l0.03,-0.058l0.031,-0.058l0.032,-0.058l0.032,-0.058l0.033,-0.057l0.034,-0.055l0.035,-0.056l0.035,-0.056l0.035,-0.055l0.037,-0.055l0.037,-0.053l0.037,-0.054l0.038,-0.053l0.04,-0.052l0.039,-0.053l0.04,-0.051l0.04,-0.052l0.041,-0.05l0.042,-0.05l0.043,-0.049l0.043,-0.049l0.043,-0.049l0.045,-0.048l0.044,-0.047l0.045,-0.047l0.047,-0.046l0.046,-0.047l0.047,-0.045l0.047,-0.045l0.048,-0.044l0.049,-0.043l0.049,-0.043l0.049,-0.043l0.05,-0.042l0.051,-0.041l0.051,-0.04l0.051,-0.04l0.053,-0.039l0.052,-0.04l0.053,-0.038l0.054,-0.037l0.054,-0.037l0.054,-0.037l0.055,-0.035l0.056,-0.035l0.056,-0.035l0.056,-0.034l0.057,-0.033l0.057,-0.032l0.058,-0.032l0.058,-0.031l0.058,-0.031l0.059,-0.029l0.059,-0.029l0.059,-0.028l0.061,-0.028l0.06,-0.027l0.061,-0.026l0.062,-0.026l0.061,-0.024l0.062,-0.025l0.063,-0.023l0.062,-0.022l0.063,-0.022l0.064,-0.021l0.064,-0.02l0.064,-0.02l0.064,-0.019l0.065,-0.018l0.065,-0.017l0.065,-0.016l0.066,-0.016l0.067,-0.015l0.066,-0.014l0.067,-0.013l0.066,-0.012l0.067,-0.012l0.068,-0.011l0.068,-0.01l0.068,-0.009l0.068,-0.008l0.068,-0.007l0.069,-0.006l0.068,-0.007l0.07,-0.004l0.069,-0.004l0.07,-0.003l0.069,-0.003l0.07,-0.001l0.14,0Zm-0.115,1.99l-0.045,0.001l-0.044,0.001l-0.044,0.002l-0.044,0.003l-0.045,0.003l-0.043,0.004l-0.044,0.004l-0.043,0.005l-0.044,0.005l-0.042,0.006l-0.044,0.006l-0.042,0.006l-0.042,0.008l-0.043,0.008l-0.042,0.008l-0.042,0.009l-0.042,0.009l-0.041,0.01l-0.042,0.011l-0.041,0.011l-0.04,0.011l-0.042,0.012l-0.04,0.012l-0.04,0.013l-0.041,0.013l-0.04,0.014l-0.039,0.014l-0.04,0.015l-0.039,0.015l-0.038,0.016l-0.04,0.016l-0.038,0.016l-0.038,0.018l-0.038,0.017l-0.038,0.018l-0.037,0.018l-0.038,0.019l-0.037,0.019l-0.036,0.02l-0.037,0.02l-0.036,0.02l-0.036,0.021l-0.036,0.022l-0.035,0.022l-0.036,0.022l-0.034,0.023l-0.035,0.023l-0.034,0.023l-0.034,0.024l-0.034,0.025l-0.033,0.024l-0.034,0.025l-0.032,0.026l-0.033,0.025l-0.032,0.026l-0.031,0.027l-0.032,0.027l-0.031,0.027l-0.031,0.028l-0.031,0.028l-0.03,0.028l-0.029,0.03l-0.03,0.029l-0.029,0.029l-0.029,0.03l-0.029,0.03l-0.028,0.031l-0.028,0.031l-0.027,0.031l-0.026,0.032l-0.027,0.031l-0.027,0.032l-0.025,0.032l-0.026,0.033l-0.025,0.034l-0.024,0.033l-0.025,0.033l-0.024,0.035l-0.023,0.034l-0.023,0.035l-0.023,0.034l-0.022,0.036l-0.022,0.035l-0.022,0.036l-0.021,0.036l-0.02,0.036l-0.02,0.037l-0.02,0.036l-0.019,0.037l-0.019,0.037l-0.018,0.038l-0.018,0.038l-0.017,0.038l-0.017,0.038l-0.017,0.038l-0.016,0.04l-0.015,0.038l-0.016,0.039l-0.015,0.04l-0.014,0.039l-0.014,0.04l-0.013,0.041l-0.013,0.04l-0.012,0.04l-0.012,0.041l-0.011,0.041l-0.011,0.041l-0.011,0.042l-0.01,0.041l-0.009,0.042l-0.009,0.042l-0.008,0.042l-0.008,0.043l-0.007,0.042l-0.007,0.042l-0.006,0.044l-0.006,0.042l-0.005,0.044l-0.005,0.043l-0.004,0.044l-0.004,0.043l-0.003,0.045l-0.003,0.044l-0.001,0.044l-0.001,0.044l-0.002,0.045l0,8.118l0.004,0.133l0.006,0.088l0.004,0.044l0.004,0.044l0.005,0.043l0.005,0.043l0.006,0.043l0.006,0.043l0.014,0.085l0.008,0.043l0.008,0.042l0.018,0.084l0.01,0.041l0.011,0.041l0.011,0.042l0.011,0.04l0.012,0.042l0.012,0.039l0.013,0.041l0.027,0.08l0.014,0.04l0.015,0.039l0.031,0.078l0.016,0.039l0.017,0.039l0.017,0.038l0.017,0.038l0.018,0.038l0.018,0.037l0.019,0.038l0.019,0.037l0.02,0.036l0.04,0.073l0.021,0.036l0.022,0.036l0.022,0.035l0.045,0.07l0.023,0.035l0.023,0.034l0.024,0.034l0.049,0.067l0.051,0.066l0.025,0.033l0.027,0.032l0.053,0.063l0.027,0.031l0.056,0.062l0.029,0.03l0.058,0.059l0.059,0.058l0.03,0.028l0.062,0.056l0.031,0.028l0.063,0.053l0.032,0.026l0.033,0.026l0.032,0.025l0.034,0.026l0.033,0.024l0.034,0.025l0.034,0.023l0.034,0.024l0.035,0.023l0.034,0.023l0.036,0.022l0.035,0.022l0.036,0.021l0.072,0.042l0.037,0.02l0.036,0.02l0.037,0.018l0.038,0.019l0.037,0.019l0.038,0.018l0.038,0.017l0.038,0.017l0.038,0.017l0.04,0.016l0.038,0.015l0.039,0.016l0.04,0.014l0.039,0.014l0.04,0.014l0.041,0.014l0.04,0.012l0.04,0.013l0.042,0.012l0.04,0.011l0.041,0.011l0.042,0.011l0.041,0.009l0.084,0.019l0.042,0.008l0.043,0.008l0.042,0.007l0.042,0.007l0.044,0.006l0.042,0.006l0.044,0.005l0.043,0.004l0.044,0.005l0.043,0.003l0.045,0.004l0.044,0.002l0.044,0.002l0.089,0.003l0.09,0l0.045,-0.002l0.044,-0.001l0.044,-0.002l0.044,-0.002l0.045,-0.004l0.044,-0.003l0.043,-0.005l0.043,-0.004l0.044,-0.005l0.043,-0.006l0.043,-0.006l0.042,-0.007l0.043,-0.007l0.042,-0.008l0.042,-0.008l0.042,-0.01l0.042,-0.009l0.041,-0.009l0.042,-0.011l0.041,-0.011l0.041,-0.011l0.041,-0.012l0.04,-0.013l0.041,-0.012l0.04,-0.014l0.04,-0.014l0.039,-0.014l0.04,-0.014l0.039,-0.016l0.039,-0.015l0.039,-0.016l0.038,-0.017l0.038,-0.017l0.038,-0.017l0.038,-0.018l0.038,-0.019l0.037,-0.019l0.037,-0.018l0.037,-0.02l0.036,-0.02l0.037,-0.021l0.035,-0.021l0.036,-0.021l0.036,-0.022l0.035,-0.022l0.035,-0.023l0.034,-0.023l0.034,-0.024l0.035,-0.023l0.033,-0.025l0.034,-0.024l0.033,-0.026l0.033,-0.025l0.032,-0.026l0.032,-0.026l0.032,-0.027l0.032,-0.026l0.03,-0.028l0.031,-0.028l0.031,-0.028l0.03,-0.028l0.03,-0.029l0.029,-0.029l0.03,-0.03l0.029,-0.029l0.028,-0.03l0.028,-0.031l0.028,-0.031l0.027,-0.031l0.027,-0.032l0.027,-0.031l0.026,-0.032l0.025,-0.033l0.026,-0.033l0.025,-0.033l0.025,-0.034l0.024,-0.033l0.024,-0.034l0.023,-0.034l0.023,-0.035l0.023,-0.035l0.022,-0.035l0.022,-0.035l0.022,-0.036l0.021,-0.036l0.02,-0.036l0.02,-0.037l0.02,-0.036l0.019,-0.037l0.019,-0.038l0.018,-0.037l0.018,-0.038l0.017,-0.038l0.018,-0.038l0.016,-0.039l0.016,-0.039l0.016,-0.039l0.016,-0.039l0.014,-0.039l0.014,-0.04l0.014,-0.04l0.013,-0.04l0.013,-0.041l0.013,-0.039l0.011,-0.042l0.012,-0.04l0.01,-0.042l0.011,-0.041l0.01,-0.041l0.009,-0.042l0.009,-0.042l0.008,-0.042l0.008,-0.043l0.008,-0.042l0.007,-0.043l0.005,-0.043l0.006,-0.043l0.005,-0.043l0.005,-0.043l0.004,-0.044l0.004,-0.044l0.003,-0.044l0.003,-0.044l0.002,-0.045l0.001,-0.044l0.001,-0.044l0,-0.049l0,-8.021l0,-0.048l-0.001,-0.045l-0.001,-0.044l-0.002,-0.044l-0.003,-0.044l-0.003,-0.045l-0.004,-0.043l-0.004,-0.044l-0.005,-0.043l-0.005,-0.044l-0.006,-0.042l-0.005,-0.044l-0.007,-0.042l-0.008,-0.042l-0.008,-0.043l-0.008,-0.042l-0.009,-0.042l-0.009,-0.042l-0.01,-0.041l-0.011,-0.042l-0.01,-0.041l-0.012,-0.041l-0.011,-0.041l-0.013,-0.04l-0.013,-0.04l-0.013,-0.041l-0.014,-0.04l-0.014,-0.039l-0.014,-0.04l-0.016,-0.039l-0.016,-0.038l-0.016,-0.04l-0.016,-0.038l-0.018,-0.038l-0.017,-0.038l-0.018,-0.038l-0.018,-0.038l-0.019,-0.037l-0.019,-0.037l-0.02,-0.036l-0.02,-0.037l-0.02,-0.036l-0.021,-0.036l-0.022,-0.036l-0.022,-0.035l-0.022,-0.036l-0.023,-0.034l-0.023,-0.035l-0.023,-0.034l-0.024,-0.035l-0.024,-0.033l-0.025,-0.033l-0.025,-0.034l-0.026,-0.033l-0.025,-0.032l-0.026,-0.032l-0.027,-0.031l-0.027,-0.032l-0.027,-0.031l-0.028,-0.031l-0.028,-0.031l-0.028,-0.03l-0.029,-0.03l-0.03,-0.029l-0.029,-0.029l-0.03,-0.03l-0.03,-0.028l-0.031,-0.028l-0.031,-0.028l-0.03,-0.027l-0.032,-0.027l-0.032,-0.027l-0.032,-0.026l-0.032,-0.025l-0.033,-0.026l-0.033,-0.025l-0.034,-0.024l-0.033,-0.025l-0.035,-0.024l-0.034,-0.023l-0.034,-0.023l-0.035,-0.023l-0.035,-0.022l-0.036,-0.022l-0.036,-0.022l-0.035,-0.021l-0.037,-0.02l-0.036,-0.02l-0.037,-0.02l-0.037,-0.019l-0.037,-0.019l-0.038,-0.018l-0.038,-0.018l-0.038,-0.017l-0.038,-0.018l-0.038,-0.016l-0.039,-0.016l-0.039,-0.016l-0.039,-0.015l-0.039,-0.015l-0.04,-0.014l-0.04,-0.014l-0.04,-0.013l-0.041,-0.013l-0.04,-0.012l-0.041,-0.012l-0.041,-0.011l-0.041,-0.011l-0.042,-0.011l-0.041,-0.01l-0.042,-0.009l-0.042,-0.009l-0.042,-0.008l-0.042,-0.008l-0.043,-0.008l-0.042,-0.006l-0.043,-0.006l-0.043,-0.006l-0.044,-0.005l-0.043,-0.005l-0.043,-0.004l-0.044,-0.004l-0.045,-0.003l-0.044,-0.003l-0.044,-0.002l-0.044,-0.001l-0.045,-0.001l-0.045,0l-0.045,0l0,0Z" style="fill:#fff;"/><path d="M50,14.987c-6.369,0 -11.013,4.91 -11.212,11.743c-0.199,8.691 5.507,14.861 10.814,14.993c0.066,0 0.133,0 0.199,0c5.241,0 11.146,-5.838 11.411,-14.396c0.199,-6.966 -4.378,-12.141 -10.88,-12.34c-0.133,0 -0.199,0 -0.332,0m0,2.057c0.066,0 0.199,0 0.265,0c2.654,0.066 4.91,1.061 6.502,2.919c1.659,1.858 2.522,4.445 2.389,7.364c-0.2,7.298 -5.109,12.406 -9.355,12.406l-0.133,0c-2.056,-0.066 -4.245,-1.393 -5.971,-3.516c-1.924,-2.521 -2.985,-5.905 -2.853,-9.421c0.133,-5.771 3.915,-9.752 9.156,-9.752l0,0Z" style="fill:#fff;fill-rule:nonzero;"/><g><path d="M37.328,43.946l0,12.87l-4.777,4.844l0,13.666l17.449,9.687l17.515,-9.687l0,-13.666l-4.843,-4.844l0,-12.87l-6.303,0l0,4.445l-6.369,3.516l-6.369,-3.516l0,-4.445l-6.303,0l0,0Zm2.057,1.99l2.19,0l0,3.649l1.061,0.597l6.369,3.516l0.995,0.531l0.996,-0.531l6.368,-3.516l1.062,-0.597l0,-1.194l0,-2.455l2.189,0l0,11.743l4.843,4.843l0,11.61l-15.458,8.559l-15.458,-8.559l0,-11.61l4.246,-4.245l0.597,-0.598l0,-0.863l0,-10.88l0,0Z" style="fill:#fff;fill-rule:nonzero;"/><path d="M27.974,71.081l-0.465,-0.266l-0.464,0l-0.132,0l0,-12.406c0,-3.914 1.924,-7.431 5.108,-9.421l5.307,-2.853l0,-2.322l-6.302,3.384c-3.848,2.388 -6.17,6.568 -6.17,11.212l0,12.406c0,1.062 0.995,2.057 2.189,2.057l22.955,12.141l0,-2.256l-22.026,-11.676l0,0Z" style="fill:#fff;fill-rule:nonzero;"/><path d="M72.092,71.081l0.399,-0.266l0.663,0l0,-12.406c0,-3.914 -1.924,-7.431 -5.174,-9.421l-5.308,-2.853l0,-2.322l6.302,3.384c3.848,2.388 6.17,6.568 6.17,11.212l0,12.406c0,1.062 -0.928,2.057 -2.122,2.057l-23.022,12.141l0,-2.256l22.092,-11.676l0,0Z" style="fill:#fff;fill-rule:nonzero;"/></g></svg>